<?xml version="1.0" encoding="UTF-8"?>
<!DOCTYPE svg PUBLIC "-//W3C//DTD SVG 1.1//EN" "http://www.w3.org/Graphics/SVG/1.1/DTD/svg11.dtd">
<svg version="1.2" width="297mm" height="210mm" viewBox="0 0 29700 21000" preserveAspectRatio="xMidYMid" fill-rule="evenodd" stroke-width="28.222" stroke-linejoin="round" xmlns="http://www.w3.org/2000/svg" xmlns:ooo="http://xml.openoffice.org/svg/export" xmlns:xlink="http://www.w3.org/1999/xlink" xmlns:presentation="http://sun.com/xmlns/staroffice/presentation" xmlns:smil="http://www.w3.org/2001/SMIL20/" xmlns:anim="urn:oasis:names:tc:opendocument:xmlns:animation:1.0" xml:space="preserve">
 <defs class="ClipPathGroup">
  <clipPath id="presentation_clip_path" clipPathUnits="userSpaceOnUse">
   <rect x="0" y="0" width="29700" height="21000"/>
  </clipPath>
  <clipPath id="presentation_clip_path_shrink" clipPathUnits="userSpaceOnUse">
   <rect x="29" y="21" width="29641" height="20958"/>
  </clipPath>
 </defs>
 <defs class="TextShapeIndex">
  <g ooo:slide="id1" ooo:id-list="id3 id4 id5 id6"/>
 </defs>
 <defs class="EmbeddedBulletChars">
  <g id="bullet-char-template-57356" transform="scale(0.00048828125,-0.00048828125)">
   <path d="M 580,1141 L 1163,571 580,0 -4,571 580,1141 Z"/>
  </g>
  <g id="bullet-char-template-57354" transform="scale(0.00048828125,-0.00048828125)">
   <path d="M 8,1128 L 1137,1128 1137,0 8,0 8,1128 Z"/>
  </g>
  <g id="bullet-char-template-10146" transform="scale(0.00048828125,-0.00048828125)">
   <path d="M 174,0 L 602,739 174,1481 1456,739 174,0 Z M 1358,739 L 309,1346 659,739 1358,739 Z"/>
  </g>
  <g id="bullet-char-template-10132" transform="scale(0.00048828125,-0.00048828125)">
   <path d="M 2015,739 L 1276,0 717,0 1260,543 174,543 174,936 1260,936 717,1481 1274,1481 2015,739 Z"/>
  </g>
  <g id="bullet-char-template-10007" transform="scale(0.00048828125,-0.00048828125)">
   <path d="M 0,-2 C -7,14 -16,27 -25,37 L 356,567 C 262,823 215,952 215,954 215,979 228,992 255,992 264,992 276,990 289,987 310,991 331,999 354,1012 L 381,999 492,748 772,1049 836,1024 860,1049 C 881,1039 901,1025 922,1006 886,937 835,863 770,784 769,783 710,716 594,584 L 774,223 C 774,196 753,168 711,139 L 727,119 C 717,90 699,76 672,76 641,76 570,178 457,381 L 164,-76 C 142,-110 111,-127 72,-127 30,-127 9,-110 8,-76 1,-67 -2,-52 -2,-32 -2,-23 -1,-13 0,-2 Z"/>
  </g>
  <g id="bullet-char-template-10004" transform="scale(0.00048828125,-0.00048828125)">
   <path d="M 285,-33 C 182,-33 111,30 74,156 52,228 41,333 41,471 41,549 55,616 82,672 116,743 169,778 240,778 293,778 328,747 346,684 L 369,508 C 377,444 397,411 428,410 L 1163,1116 C 1174,1127 1196,1133 1229,1133 1271,1133 1292,1118 1292,1087 L 1292,965 C 1292,929 1282,901 1262,881 L 442,47 C 390,-6 338,-33 285,-33 Z"/>
  </g>
  <g id="bullet-char-template-9679" transform="scale(0.00048828125,-0.00048828125)">
   <path d="M 813,0 C 632,0 489,54 383,161 276,268 223,411 223,592 223,773 276,916 383,1023 489,1130 632,1184 813,1184 992,1184 1136,1130 1245,1023 1353,916 1407,772 1407,592 1407,412 1353,268 1245,161 1136,54 992,0 813,0 Z"/>
  </g>
  <g id="bullet-char-template-8226" transform="scale(0.00048828125,-0.00048828125)">
   <path d="M 346,457 C 273,457 209,483 155,535 101,586 74,649 74,723 74,796 101,859 155,911 209,963 273,989 346,989 419,989 480,963 531,910 582,859 608,796 608,723 608,648 583,586 532,535 482,483 420,457 346,457 Z"/>
  </g>
  <g id="bullet-char-template-8211" transform="scale(0.00048828125,-0.00048828125)">
   <path d="M -4,459 L 1135,459 1135,606 -4,606 -4,459 Z"/>
  </g>
  <g id="bullet-char-template-61548" transform="scale(0.00048828125,-0.00048828125)">
   <path d="M 173,740 C 173,903 231,1043 346,1159 462,1274 601,1332 765,1332 928,1332 1067,1274 1183,1159 1299,1043 1357,903 1357,740 1357,577 1299,437 1183,322 1067,206 928,148 765,148 601,148 462,206 346,322 231,437 173,577 173,740 Z"/>
  </g>
 </defs>
 <g>
  <g id="id2" class="Master_Slide">
   <g id="bg-id2" class="Background"/>
   <g id="bo-id2" class="BackgroundObjects"/>
  </g>
 </g>
 <g class="SlideGroup">
  <g>
   <g id="container-id1">
    <g id="id1" class="Slide" clip-path="url(#presentation_clip_path)">
     <g class="Page">
      <g class="com.sun.star.drawing.CustomShape">
       <g id="id3">
        <rect class="BoundingBox" stroke="none" fill="none" x="4951" y="451" width="20067" height="20067"/>
        <path fill="rgb(17,17,17)" stroke="none" d="M 5441,7389 L 5368,7626 5300,7864 5239,8104 5182,8345 5133,8588 5089,8832 5052,9076 5020,9322 4994,9568 4974,9815 4961,10062 4954,10309 4952,10557 4957,10804 4968,11052 4985,11300 5008,11546 5038,11791 5073,12037 5115,12281 5162,12524 5215,12766 5274,13007 5340,13246 5411,13482 5488,13718 5570,13952 5659,14182 5753,14412 5853,14639 5958,14862 6069,15084 6185,15303 6307,15519 6433,15731 6566,15940 6703,16146 6845,16350 6993,16549 7145,16744 7302,16936 7463,17123 7629,17307 7800,17486 7975,17661 8154,17832 8338,17999 8525,18160 8716,18317 8912,18470 9110,18617 9313,18760 9519,18897 9729,19030 9941,19157 10157,19279 10376,19395 10596,19506 10820,19612 11048,19711 11276,19806 11507,19895 11741,19977 11976,20054 12213,20126 12452,20192 12692,20251 12935,20304 13177,20352 13422,20394 13666,20429 13913,20459 14159,20483 14406,20499 14654,20511 14901,20516 15149,20514 15396,20507 15643,20495 15890,20475 16137,20450 16383,20418 16627,20380 16871,20337 17113,20287 17355,20232 17595,20170 17833,20103 18069,20029 18304,19951 18537,19866 18768,19775 18995,19679 19222,19577 19444,19470 19665,19357 19883,19239 20097,19115 20308,18986 20517,18852 20722,18713 20923,18569 21121,18420 21315,18266 21505,18108 21691,17944 21873,17777 22052,17604 22225,17427 22394,17247 22559,17061 22718,16873 22874,16680 23025,16483 23170,16282 23311,16079 23447,15872 23577,15661 23702,15447 23822,15231 23936,15011 24045,14790 24149,14564 24247,14337 24339,14107 24426,13875 24506,13641 24581,13405 24651,13167 24714,12927 24772,12686 24823,12444 24868,12201 24907,11957 24941,11711 24968,11465 24989,11218 25004,10971 25014,10723 25016,10476 25013,10229 25003,9980 24988,9733 24967,9487 24939,9241 24905,8995 24866,8751 24820,8508 24767,8265 24710,8024 24646,7785 24577,7548 24502,7312 24420,7077 24333,6845 24240,6617 24142,6389 24039,6164 23929,5942 23814,5723 23693,5506 23568,5292 23437,5082 23302,4875 23161,4672 23015,4472 22864,4276 22708,4083 22548,3893 22383,3709 22213,3529 22039,3352 21862,3181 21679,3013 21493,2850 21302,2692 21108,2538 20910,2389 20708,2245 20503,2107 20294,1973 20083,1845 19868,1721 19650,1603 19430,1491 19207,1384 18981,1282 18752,1187 18522,1097 18289,1012 18054,933 17818,860 17579,793 17339,732 17097,677 16855,628 16611,585 16366,548 16120,516 15875,491 15627,473 15380,460 15132,453 14885,452 14637,458 14390,469 14142,487 13896,512 13651,541 13405,577 13162,619 12918,667 12676,721 12436,782 12198,847 11960,919 11726,996 11492,1080 11261,1168 11032,1264 10806,1363 10582,1469 10361,1581 10143,1698 9926,1820 9715,1947 9506,2080 9300,2218 9098,2360 8898,2508 10225,4247 10381,4131 10539,4019 10700,3912 10864,3808 11029,3708 11198,3613 11368,3521 11542,3433 11717,3351 11894,3272 12073,3198 12253,3128 12436,3063 12620,3003 12805,2947 12992,2895 13179,2848 13369,2806 13558,2769 13749,2736 13941,2708 14134,2685 14326,2665 14520,2652 14712,2642 14907,2638 15100,2639 15294,2644 15488,2654 15680,2669 15874,2688 16065,2712 16256,2741 16448,2775 16638,2814 16826,2857 17014,2905 17200,2957 17386,3014 17569,3075 17751,3142 17932,3212 18110,3287 18286,3366 18461,3450 18634,3538 18804,3630 18973,3726 19138,3826 19301,3931 19462,4040 19619,4152 19774,4268 19926,4389 20075,4512 20221,4640 20363,4771 20503,4906 20639,5044 20772,5184 20900,5329 21026,5477 21148,5627 21266,5781 21380,5937 21490,6096 21597,6259 21699,6423 21797,6590 21891,6759 21981,6931 22066,7105 22148,7280 22225,7459 22297,7637 22365,7819 22428,8002 22487,8186 22542,8372 22592,8559 22637,8748 22677,8937 22713,9128 22744,9319 22771,9511 22793,9703 22809,9896 22822,10090 22828,10283 22831,10476 22830,10670 22823,10864 22811,11057 22794,11250 22773,11442 22747,11635 22716,11826 22680,12016 22640,12206 22595,12394 22546,12582 22491,12767 22433,12952 22370,13135 22302,13316 22230,13496 22153,13674 22072,13850 21987,14024 21897,14196 21804,14365 21706,14532 21604,14696 21499,14859 21388,15019 21275,15175 21156,15329 21036,15480 20910,15628 20781,15772 20649,15914 20513,16052 20374,16187 20231,16318 20086,16446 19938,16570 19785,16690 19631,16807 19473,16920 19313,17028 19150,17133 18984,17234 18817,17330 18647,17423 18474,17511 18300,17595 18124,17674 17945,17750 17765,17821 17583,17887 17399,17949 17214,18007 17028,18059 16840,18107 16651,18151 16462,18190 16271,18224 16080,18254 15887,18278 15695,18297 15502,18313 15309,18323 15115,18329 14921,18330 14728,18325 14534,18317 14341,18304 14148,18285 13956,18261 13764,18234 13573,18201 13383,18165 13194,18122 13006,18076 12819,18025 12633,17969 12449,17909 12267,17844 12086,17774 11907,17701 11730,17623 11555,17540 11381,17453 11210,17362 11043,17267 10876,17167 10712,17064 10551,16957 10392,16845 10236,16730 10084,16611 9935,16488 9788,16361 9644,16231 9504,16097 9367,15961 9234,15820 9104,15677 8978,15530 8855,15380 8736,15227 8621,15072 8509,14913 8402,14751 8298,14588 8199,14422 8104,14253 8013,14082 7926,13909 7844,13734 7766,13556 7693,13377 7623,13196 7559,13014 7498,12830 7442,12644 7392,12458 7345,12269 7303,12080 7267,11890 7234,11699 7207,11507 7184,11315 7166,11122 7152,10929 7143,10735 7140,10542 7140,10348 7147,10154 7157,9960 7172,9768 7192,9575 7217,9383 7246,9192 7281,9001 7320,8811 7363,8623 7411,8435 7465,8249 7522,8064 5441,7389 Z"/>
        <path fill="none" stroke="rgb(17,17,17)" d="M 5441,7389 L 5368,7626 5300,7864 5239,8104 5182,8345 5133,8588 5089,8832 5052,9076 5020,9322 4994,9568 4974,9815 4961,10062 4954,10309 4952,10557 4957,10804 4968,11052 4985,11300 5008,11546 5038,11791 5073,12037 5115,12281 5162,12524 5215,12766 5274,13007 5340,13246 5411,13482 5488,13718 5570,13952 5659,14182 5753,14412 5853,14639 5958,14862 6069,15084 6185,15303 6307,15519 6433,15731 6566,15940 6703,16146 6845,16350 6993,16549 7145,16744 7302,16936 7463,17123 7629,17307 7800,17486 7975,17661 8154,17832 8338,17999 8525,18160 8716,18317 8912,18470 9110,18617 9313,18760 9519,18897 9729,19030 9941,19157 10157,19279 10376,19395 10596,19506 10820,19612 11048,19711 11276,19806 11507,19895 11741,19977 11976,20054 12213,20126 12452,20192 12692,20251 12935,20304 13177,20352 13422,20394 13666,20429 13913,20459 14159,20483 14406,20499 14654,20511 14901,20516 15149,20514 15396,20507 15643,20495 15890,20475 16137,20450 16383,20418 16627,20380 16871,20337 17113,20287 17355,20232 17595,20170 17833,20103 18069,20029 18304,19951 18537,19866 18768,19775 18995,19679 19222,19577 19444,19470 19665,19357 19883,19239 20097,19115 20308,18986 20517,18852 20722,18713 20923,18569 21121,18420 21315,18266 21505,18108 21691,17944 21873,17777 22052,17604 22225,17427 22394,17247 22559,17061 22718,16873 22874,16680 23025,16483 23170,16282 23311,16079 23447,15872 23577,15661 23702,15447 23822,15231 23936,15011 24045,14790 24149,14564 24247,14337 24339,14107 24426,13875 24506,13641 24581,13405 24651,13167 24714,12927 24772,12686 24823,12444 24868,12201 24907,11957 24941,11711 24968,11465 24989,11218 25004,10971 25014,10723 25016,10476 25013,10229 25003,9980 24988,9733 24967,9487 24939,9241 24905,8995 24866,8751 24820,8508 24767,8265 24710,8024 24646,7785 24577,7548 24502,7312 24420,7077 24333,6845 24240,6617 24142,6389 24039,6164 23929,5942 23814,5723 23693,5506 23568,5292 23437,5082 23302,4875 23161,4672 23015,4472 22864,4276 22708,4083 22548,3893 22383,3709 22213,3529 22039,3352 21862,3181 21679,3013 21493,2850 21302,2692 21108,2538 20910,2389 20708,2245 20503,2107 20294,1973 20083,1845 19868,1721 19650,1603 19430,1491 19207,1384 18981,1282 18752,1187 18522,1097 18289,1012 18054,933 17818,860 17579,793 17339,732 17097,677 16855,628 16611,585 16366,548 16120,516 15875,491 15627,473 15380,460 15132,453 14885,452 14637,458 14390,469 14142,487 13896,512 13651,541 13405,577 13162,619 12918,667 12676,721 12436,782 12198,847 11960,919 11726,996 11492,1080 11261,1168 11032,1264 10806,1363 10582,1469 10361,1581 10143,1698 9926,1820 9715,1947 9506,2080 9300,2218 9098,2360 8898,2508 10225,4247 10381,4131 10539,4019 10700,3912 10864,3808 11029,3708 11198,3613 11368,3521 11542,3433 11717,3351 11894,3272 12073,3198 12253,3128 12436,3063 12620,3003 12805,2947 12992,2895 13179,2848 13369,2806 13558,2769 13749,2736 13941,2708 14134,2685 14326,2665 14520,2652 14712,2642 14907,2638 15100,2639 15294,2644 15488,2654 15680,2669 15874,2688 16065,2712 16256,2741 16448,2775 16638,2814 16826,2857 17014,2905 17200,2957 17386,3014 17569,3075 17751,3142 17932,3212 18110,3287 18286,3366 18461,3450 18634,3538 18804,3630 18973,3726 19138,3826 19301,3931 19462,4040 19619,4152 19774,4268 19926,4389 20075,4512 20221,4640 20363,4771 20503,4906 20639,5044 20772,5184 20900,5329 21026,5477 21148,5627 21266,5781 21380,5937 21490,6096 21597,6259 21699,6423 21797,6590 21891,6759 21981,6931 22066,7105 22148,7280 22225,7459 22297,7637 22365,7819 22428,8002 22487,8186 22542,8372 22592,8559 22637,8748 22677,8937 22713,9128 22744,9319 22771,9511 22793,9703 22809,9896 22822,10090 22828,10283 22831,10476 22830,10670 22823,10864 22811,11057 22794,11250 22773,11442 22747,11635 22716,11826 22680,12016 22640,12206 22595,12394 22546,12582 22491,12767 22433,12952 22370,13135 22302,13316 22230,13496 22153,13674 22072,13850 21987,14024 21897,14196 21804,14365 21706,14532 21604,14696 21499,14859 21388,15019 21275,15175 21156,15329 21036,15480 20910,15628 20781,15772 20649,15914 20513,16052 20374,16187 20231,16318 20086,16446 19938,16570 19785,16690 19631,16807 19473,16920 19313,17028 19150,17133 18984,17234 18817,17330 18647,17423 18474,17511 18300,17595 18124,17674 17945,17750 17765,17821 17583,17887 17399,17949 17214,18007 17028,18059 16840,18107 16651,18151 16462,18190 16271,18224 16080,18254 15887,18278 15695,18297 15502,18313 15309,18323 15115,18329 14921,18330 14728,18325 14534,18317 14341,18304 14148,18285 13956,18261 13764,18234 13573,18201 13383,18165 13194,18122 13006,18076 12819,18025 12633,17969 12449,17909 12267,17844 12086,17774 11907,17701 11730,17623 11555,17540 11381,17453 11210,17362 11043,17267 10876,17167 10712,17064 10551,16957 10392,16845 10236,16730 10084,16611 9935,16488 9788,16361 9644,16231 9504,16097 9367,15961 9234,15820 9104,15677 8978,15530 8855,15380 8736,15227 8621,15072 8509,14913 8402,14751 8298,14588 8199,14422 8104,14253 8013,14082 7926,13909 7844,13734 7766,13556 7693,13377 7623,13196 7559,13014 7498,12830 7442,12644 7392,12458 7345,12269 7303,12080 7267,11890 7234,11699 7207,11507 7184,11315 7166,11122 7152,10929 7143,10735 7140,10542 7140,10348 7147,10154 7157,9960 7172,9768 7192,9575 7217,9383 7246,9192 7281,9001 7320,8811 7363,8623 7411,8435 7465,8249 7522,8064 5441,7389 Z"/>
       </g>
      </g>
      <g class="com.sun.star.drawing.CustomShape">
       <g id="id4">
        <rect class="BoundingBox" stroke="none" fill="none" x="9340" y="4724" width="11432" height="11432"/>
        <path fill="rgb(17,17,17)" stroke="none" d="M 9584,8793 L 9545,8929 9509,9065 9477,9202 9449,9340 9423,9479 9401,9618 9383,9758 9367,9898 9356,10039 9348,10180 9343,10320 9341,10461 9344,10602 9349,10743 9359,10884 9371,11024 9388,11164 9407,11304 9430,11442 9456,11581 9486,11718 9519,11855 9556,11992 9596,12127 9639,12261 9686,12394 9736,12526 9788,12656 9845,12785 9904,12913 9966,13039 10032,13164 10101,13288 10172,13409 10247,13528 10325,13646 10405,13761 10489,13875 10575,13987 10664,14096 10755,14203 10849,14308 10946,14411 11045,14511 11146,14608 11250,14704 11357,14796 11465,14886 11576,14973 11689,15057 11804,15139 11921,15218 12039,15294 12160,15367 12283,15437 12407,15504 12532,15568 12660,15628 12788,15685 12918,15740 13050,15791 13182,15839 13315,15883 13451,15925 13585,15963 13722,15998 13860,16028 13998,16056 14137,16080 14276,16101 14417,16119 14556,16133 14697,16144 14837,16151 14979,16154 15119,16154 15260,16151 15401,16144 15542,16134 15682,16120 15822,16103 15961,16082 16100,16059 16238,16031 16376,15999 16512,15966 16648,15928 16783,15887 16917,15843 17049,15795 17181,15744 17311,15690 17440,15633 17568,15572 17693,15509 17817,15443 17940,15373 18061,15300 18180,15225 18297,15147 18412,15065 18525,14980 18636,14894 18744,14804 18851,14712 18955,14618 19057,14520 19156,14420 19253,14317 19347,14213 19439,14105 19528,13996 19615,13885 19698,13771 19779,13656 19857,13538 19932,13419 20005,13298 20073,13175 20139,13051 20202,12924 20261,12797 20318,12668 20372,12537 20422,12405 20468,12273 20511,12138 20552,12003 20589,11868 20622,11731 20653,11593 20680,11454 20703,11316 20722,11175 20739,11036 20752,10895 20762,10755 20768,10614 20770,10473 20769,10332 20765,10191 20757,10051 20746,9910 20731,9770 20713,9631 20691,9491 20666,9352 20637,9215 20606,9077 20571,8940 20532,8805 20490,8671 20445,8538 20396,8405 20344,8274 20289,8144 20231,8016 20170,7889 20105,7763 20038,7640 19967,7517 19894,7398 19817,7280 19738,7163 19655,7048 19570,6936 19483,6826 19393,6718 19299,6612 19204,6509 19106,6407 19005,6309 18901,6213 18796,6119 18689,6029 18579,5940 18467,5855 18353,5772 18236,5692 18119,5615 17998,5541 17877,5470 17754,5402 17629,5337 17502,5275 17374,5216 17244,5161 17114,5108 16981,5059 16848,5013 16714,4971 16578,4931 16442,4896 16305,4864 16167,4835 16028,4808 15890,4787 15750,4768 15610,4752 15470,4740 15329,4732 15188,4726 15047,4725 14906,4727 14765,4733 14625,4742 14484,4755 14344,4770 14205,4789 14066,4812 13927,4838 13789,4868 13652,4901 13516,4937 13381,4977 13246,5020 13113,5066 12981,5116 12851,5168 12722,5225 12593,5284 12467,5346 12342,5411 12219,5479 13411,7563 13556,7485 13704,7414 13857,7351 14012,7295 14170,7247 14330,7206 14492,7174 14655,7151 14819,7134 14983,7127 15148,7128 15313,7136 15477,7153 15640,7178 15802,7211 15962,7252 16118,7301 16274,7358 16425,7423 16574,7494 16719,7573 16860,7659 16995,7753 17126,7852 17252,7959 17374,8071 17489,8189 17598,8314 17700,8442 17796,8577 17885,8715 17968,8857 18044,9004 18111,9155 18171,9309 18223,9464 18268,9624 18305,9785 18333,9946 18353,10111 18366,10275 18370,10440 18366,10605 18354,10769 18333,10933 18304,11095 18268,11256 18223,11415 18171,11571 18111,11725 18043,11875 17968,12022 17885,12165 17797,12304 17700,12438 17598,12566 17489,12690 17374,12808 17254,12921 17127,13027 16996,13127 16860,13220 16720,13306 16575,13385 16426,13457 16275,13522 16119,13579 15962,13627 15802,13669 15641,13702 15478,13727 15313,13744 15149,13753 14984,13753 14819,13746 14656,13730 14492,13706 14330,13674 14170,13633 14013,13585 13858,13530 13705,13466 13557,13395 13411,13317 13270,13232 13134,13139 13001,13040 12875,12934 12753,12824 12637,12706 12528,12583 12425,12454 12328,12321 12237,12182 12154,12041 12078,11894 12009,11744 11948,11591 11895,11435 11850,11276 11812,11116 11782,10954 11761,10790 11747,10626 11742,10461 11745,10296 11756,10131 11776,9968 11804,9805 11839,9644 11883,9485 9584,8793 Z"/>
        <path fill="none" stroke="rgb(17,17,17)" d="M 9584,8793 L 9545,8929 9509,9065 9477,9202 9449,9340 9423,9479 9401,9618 9383,9758 9367,9898 9356,10039 9348,10180 9343,10320 9341,10461 9344,10602 9349,10743 9359,10884 9371,11024 9388,11164 9407,11304 9430,11442 9456,11581 9486,11718 9519,11855 9556,11992 9596,12127 9639,12261 9686,12394 9736,12526 9788,12656 9845,12785 9904,12913 9966,13039 10032,13164 10101,13288 10172,13409 10247,13528 10325,13646 10405,13761 10489,13875 10575,13987 10664,14096 10755,14203 10849,14308 10946,14411 11045,14511 11146,14608 11250,14704 11357,14796 11465,14886 11576,14973 11689,15057 11804,15139 11921,15218 12039,15294 12160,15367 12283,15437 12407,15504 12532,15568 12660,15628 12788,15685 12918,15740 13050,15791 13182,15839 13315,15883 13451,15925 13585,15963 13722,15998 13860,16028 13998,16056 14137,16080 14276,16101 14417,16119 14556,16133 14697,16144 14837,16151 14979,16154 15119,16154 15260,16151 15401,16144 15542,16134 15682,16120 15822,16103 15961,16082 16100,16059 16238,16031 16376,15999 16512,15966 16648,15928 16783,15887 16917,15843 17049,15795 17181,15744 17311,15690 17440,15633 17568,15572 17693,15509 17817,15443 17940,15373 18061,15300 18180,15225 18297,15147 18412,15065 18525,14980 18636,14894 18744,14804 18851,14712 18955,14618 19057,14520 19156,14420 19253,14317 19347,14213 19439,14105 19528,13996 19615,13885 19698,13771 19779,13656 19857,13538 19932,13419 20005,13298 20073,13175 20139,13051 20202,12924 20261,12797 20318,12668 20372,12537 20422,12405 20468,12273 20511,12138 20552,12003 20589,11868 20622,11731 20653,11593 20680,11454 20703,11316 20722,11175 20739,11036 20752,10895 20762,10755 20768,10614 20770,10473 20769,10332 20765,10191 20757,10051 20746,9910 20731,9770 20713,9631 20691,9491 20666,9352 20637,9215 20606,9077 20571,8940 20532,8805 20490,8671 20445,8538 20396,8405 20344,8274 20289,8144 20231,8016 20170,7889 20105,7763 20038,7640 19967,7517 19894,7398 19817,7280 19738,7163 19655,7048 19570,6936 19483,6826 19393,6718 19299,6612 19204,6509 19106,6407 19005,6309 18901,6213 18796,6119 18689,6029 18579,5940 18467,5855 18353,5772 18236,5692 18119,5615 17998,5541 17877,5470 17754,5402 17629,5337 17502,5275 17374,5216 17244,5161 17114,5108 16981,5059 16848,5013 16714,4971 16578,4931 16442,4896 16305,4864 16167,4835 16028,4808 15890,4787 15750,4768 15610,4752 15470,4740 15329,4732 15188,4726 15047,4725 14906,4727 14765,4733 14625,4742 14484,4755 14344,4770 14205,4789 14066,4812 13927,4838 13789,4868 13652,4901 13516,4937 13381,4977 13246,5020 13113,5066 12981,5116 12851,5168 12722,5225 12593,5284 12467,5346 12342,5411 12219,5479 13411,7563 13556,7485 13704,7414 13857,7351 14012,7295 14170,7247 14330,7206 14492,7174 14655,7151 14819,7134 14983,7127 15148,7128 15313,7136 15477,7153 15640,7178 15802,7211 15962,7252 16118,7301 16274,7358 16425,7423 16574,7494 16719,7573 16860,7659 16995,7753 17126,7852 17252,7959 17374,8071 17489,8189 17598,8314 17700,8442 17796,8577 17885,8715 17968,8857 18044,9004 18111,9155 18171,9309 18223,9464 18268,9624 18305,9785 18333,9946 18353,10111 18366,10275 18370,10440 18366,10605 18354,10769 18333,10933 18304,11095 18268,11256 18223,11415 18171,11571 18111,11725 18043,11875 17968,12022 17885,12165 17797,12304 17700,12438 17598,12566 17489,12690 17374,12808 17254,12921 17127,13027 16996,13127 16860,13220 16720,13306 16575,13385 16426,13457 16275,13522 16119,13579 15962,13627 15802,13669 15641,13702 15478,13727 15313,13744 15149,13753 14984,13753 14819,13746 14656,13730 14492,13706 14330,13674 14170,13633 14013,13585 13858,13530 13705,13466 13557,13395 13411,13317 13270,13232 13134,13139 13001,13040 12875,12934 12753,12824 12637,12706 12528,12583 12425,12454 12328,12321 12237,12182 12154,12041 12078,11894 12009,11744 11948,11591 11895,11435 11850,11276 11812,11116 11782,10954 11761,10790 11747,10626 11742,10461 11745,10296 11756,10131 11776,9968 11804,9805 11839,9644 11883,9485 9584,8793 Z"/>
       </g>
      </g>
      <g class="com.sun.star.drawing.CustomShape">
       <g id="id5">
        <rect class="BoundingBox" stroke="none" fill="none" x="13331" y="8520" width="3609" height="3610"/>
        <path fill="rgb(17,17,17)" stroke="none" d="M 16938,10325 C 16938,10641 16855,10952 16696,11226 16538,11500 16311,11728 16037,11886 15762,12045 15451,12128 15135,12128 14819,12128 14508,12045 14234,11886 13959,11728 13732,11500 13574,11226 13415,10952 13332,10641 13332,10325 13332,10008 13415,9697 13574,9423 13732,9149 13959,8921 14234,8763 14508,8604 14819,8521 15135,8521 15451,8521 15762,8604 16037,8763 16311,8921 16538,9149 16696,9423 16855,9697 16938,10008 16938,10324 L 16938,10325 Z"/>
        <path fill="none" stroke="rgb(17,17,17)" d="M 16938,10325 C 16938,10641 16855,10952 16696,11226 16538,11500 16311,11728 16037,11886 15762,12045 15451,12128 15135,12128 14819,12128 14508,12045 14234,11886 13959,11728 13732,11500 13574,11226 13415,10952 13332,10641 13332,10325 13332,10008 13415,9697 13574,9423 13732,9149 13959,8921 14234,8763 14508,8604 14819,8521 15135,8521 15451,8521 15762,8604 16037,8763 16311,8921 16538,9149 16696,9423 16855,9697 16938,10008 16938,10324 L 16938,10325 Z"/>
       </g>
      </g>
      <g class="com.sun.star.drawing.CustomShape">
       <g id="id6">
        <rect class="BoundingBox" stroke="none" fill="none" x="9415" y="1779" width="6662" height="9136"/>
        <path fill="rgb(17,17,17)" stroke="none" d="M 15168,10366 L 14261,10913 9416,2874 11230,1780 16075,9819 15168,10366 Z"/>
        <path fill="none" stroke="rgb(17,17,17)" d="M 15168,10366 L 14261,10913 9416,2874 11230,1780 16075,9819 15168,10366 Z"/>
       </g>
      </g>
     </g>
    </g>
   </g>
  </g>
 </g>
</svg>